<svg xmlns="http://www.w3.org/2000/svg" width="32" height="32"><path fill="#2E63A8" d="M16 0C7.2 0 0 7.2 0 16s7.2 16 16 16 16-7.2 16-16S24.8 0 16 0zm3.1 10.6c0-.1.1-.2.2-.3.1-.1.2-.1.2-.2l.2-.2c.1-.1.1-.2.2-.3s.1-.4.1-.6c.2 0 .4.2.6.6.2.4.4.8.4 1.2 0 .4-.1.7-.3.9-.2.2-.4.3-.7.3-.3 0-.5-.1-.7-.3s-.3-.4-.3-.7c0-.2 0-.3.1-.4zm-4 0c0-.1.1-.2.2-.3s.2-.1.2-.2l.2-.2c.1-.1.1-.2.2-.3.1-.2.1-.4.1-.6.2 0 .4.2.6.6.2.4.4.8.4 1.2 0 .4-.1.7-.3.9-.2.2-.4.3-.7.3-.3 0-.5-.1-.7-.3s-.3-.4-.3-.7c0-.2 0-.3.1-.4zm-4 0c0-.1.1-.2.2-.3s.2-.1.2-.2l.2-.2c.1-.1.1-.2.2-.3.1-.2.1-.4.1-.6.2 0 .4.2.6.6.2.4.4.8.4 1.2 0 .4-.1.7-.3.9-.2.2-.4.3-.7.3-.3 0-.5-.1-.7-.3s-.3-.4-.3-.7c0-.2 0-.3.1-.4zM9 17.5c0-.4.1-.8.4-1.1.3-.3.6-.4 1.1-.4h.5v-3.5h2V16h2v-3.5h2V16h2v-3.5h2V16h.5c.4 0 .8.1 1.1.4.3.3.4.6.4 1.1V19c-.2 0-.3 0-.4-.1-.1-.1-.2-.2-.4-.3-.2-.1-.3-.2-.4-.3-.1-.1-.2-.1-.5-.2-.2-.1-.4-.1-.6-.1-.2 0-.5 0-.7.1s-.4.1-.5.2c-.1.1-.2.2-.4.3-.1.1-.2.2-.3.2-.1 0-.1.1-.2.1s-.2.1-.3.1c-.2 0-.3 0-.4-.1-.1-.1-.2-.2-.4-.3-.2-.1-.3-.2-.4-.3-.1-.1-.2-.1-.5-.2-.1-.1-.4-.1-.6-.1-.2 0-.5 0-.7.1-.2.1-.4.1-.5.2s-.2.2-.4.3c-.1.1-.2.2-.3.2s-.1.1-.2.1-.2.1-.3.1c-.2 0-.3 0-.4-.1-.1-.1-.2-.2-.4-.3-.1-.1-.3-.2-.4-.3-.1-.1-.3-.1-.5-.2-.1-.1-.3-.1-.6-.1-.2 0-.5 0-.7.1-.2.1-.4.1-.5.2s-.2.2-.4.3c-.2.1-.3.2-.4.3 0 .1-.1.1-.3.1v-1.5zM23 20v3H9v-3c.2 0 .5 0 .7-.1s.4-.1.5-.2c.1-.1.2-.2.4-.3.2-.1.3-.2.4-.3 0-.1.2-.1.3-.1.2 0 .3 0 .4.1.1.1.2.2.4.3.2.1.3.2.4.3.1.1.2.1.5.2.2.1.4.1.7.1.2 0 .5 0 .7-.1.2-.1.4-.1.5-.2.1-.1.2-.2.4-.3.1-.1.2-.2.3-.2.1 0 .1-.1.2-.1s.2-.1.3-.1c.2 0 .3 0 .4.1.1.1.2.2.4.3.1.1.3.2.4.3s.3.1.5.2.4.1.7.1.5 0 .7-.1c.2-.1.4-.1.5-.2.1-.1.2-.2.4-.3.2-.1.3-.2.4-.3.1-.1.3-.1.4-.1.2 0 .3 0 .4.1.1.1.2.2.4.3.1.1.3.2.4.3s.3.1.5.2c-.1.1.2.1.4.1z"/></svg>