<svg xmlns="http://www.w3.org/2000/svg" width="32" height="32"><path fill="#CB0E1E" d="M15 24c0-.7.1-1.4.2-2H8.6c-.2 0-.3-.1-.5-.2 0-.1-.1-.3-.1-.4v-1.3c0-.2.1-.3.2-.5.1-.1.3-.2.5-.2h7.6c.6-1 1.4-1.9 2.3-2.6h-10c-.2 0-.3-.1-.5-.2 0-.1-.1-.3-.1-.4v-1.3c0-.2.1-.3.2-.5.1-.1.3-.2.5-.2h14.2c.2 0 .3.1.5.2.1.1.2.3.2.5v.1h.5c3.2 0 6.1 1.7 7.7 4.3.2-1.1.3-2.2.3-3.3 0-8.8-7.2-16-16-16C7.2 0 0 7.2 0 16s7.2 16 16 16c1.1 0 2.2-.1 3.3-.3-2.6-1.6-4.3-4.5-4.3-7.7zM8 9.7c0-.2.1-.3.2-.5.1-.1.3-.2.5-.2h14.2c.2 0 .3.1.5.2.1.1.2.3.2.5V11c0 .2-.1.3-.2.5-.1.1-.3.2-.5.2H8.6c-.2 0-.3-.1-.5-.2 0-.2-.1-.3-.1-.5V9.7z"/><path fill="#CB0E1E" d="M24 16c-4.4 0-8 3.6-8 8s3.6 8 8 8 8-3.6 8-8-3.6-8-8-8zm3.8 10.7c0 .1 0 .2-.1.3 0 0-.1.1-.3.1h-7.1c-.1 0-.2 0-.3-.1v-1c0-.1 0-.2.1-.3 0 0 .1-.1.3-.1h7.1c.1 0 .2 0 .3.1.1.1.1.2.1.3l-.1.7zm0-2.6c0 .1 0 .1-.1.3 0 .1-.1.1-.3.1h-7.1c-.1 0-.2-.1-.3-.1v-1c0-.1 0-.2.1-.3 0-.1.1-.1.3-.1h7.1c.1 0 .2 0 .3.1 0 0 .1.2.1.3l-.1.7zm0-2.6c0 .1 0 .1-.1.3 0 0-.1.1-.3.1h-7.1c-.1 0-.2-.1-.3-.1V20.9c0-.1 0-.2.1-.3 0-.1.1-.1.3-.1h7.1c.1 0 .2 0 .3.1 0 0 .1.1.1.3l-.1.6z"/></svg>