<svg xmlns="http://www.w3.org/2000/svg" width="32" height="32"><path fill="#CB0A1D" d="M16 0C7.2 0 0 7.2 0 16s7.2 16 16 16 16-7.2 16-16S24.8 0 16 0zm7.5 21.4c0 .2-.1.3-.2.5-.1.1-.3.2-.5.2H8.6c-.2 0-.3-.1-.5-.2 0-.2-.1-.4-.1-.5v-1.3c0-.2.1-.3.2-.5.1-.1.3-.2.5-.2h14.2c.2 0 .3.1.5.2s.2.3.2.5v1.3zm0-5.2c0 .2-.1.3-.2.5s-.3.2-.5.2H8.6c-.2 0-.3-.1-.5-.2 0-.2-.1-.4-.1-.5v-1.3c0-.2.1-.3.2-.5.1-.1.3-.2.5-.2h14.2c.2 0 .3.1.5.2.1.1.2.3.2.5v1.3zm0-5.2c0 .2-.1.3-.2.5-.1.1-.3.2-.5.2H8.6c-.2 0-.3-.1-.5-.2 0-.2-.1-.3-.1-.5V9.7c0-.2.1-.3.2-.5.1-.1.3-.2.5-.2h14.2c.2 0 .3.1.5.2.1.1.2.3.2.5V11z"/></svg>