<svg xmlns="http://www.w3.org/2000/svg" width="32" height="32"><path fill="#2E63A8" d="M16 0C7.2 0 0 7.2 0 16s7.2 16 16 16 16-7.2 16-16S24.8 0 16 0zm-2.7 9.1C14.1 8.4 15 8 16 8c1.1 0 2 .4 2.7 1.1.7.7 1.1 1.7 1.1 2.7 0 1.1-.4 2-1.1 2.7-.7.7-1.7 1.1-2.7 1.1-1.1 0-2-.4-2.7-1.1-.7-.7-1.1-1.7-1.1-2.7 0-1 .4-1.9 1.1-2.7zm9 13.5c-.5.5-1.1.7-1.9.7h-8.7c-.8 0-1.5-.2-1.9-.7-.6-.4-.8-1.1-.8-1.8v-1c0-.3.1-.7.1-1.1.1-.4.2-.8.3-1.1.1-.3.2-.7.4-1 .2-.3.4-.6.6-.8.2-.2.5-.4.9-.5.3-.1.7-.2 1.1-.2.1 0 .2.1.4.2s.5.3.7.5c.3.2.6.3 1.1.5.4.1.9.2 1.3.2s.9-.1 1.3-.2.8-.3 1.1-.5c.3-.2.5-.3.7-.5l.4-.2c.4 0 .8.1 1.1.2.3.1.6.3.9.5.2.2.4.5.6.8.2.3.3.6.4 1 .1.3.2.7.3 1.1.3.3.3.7.3 1v1c.1.8-.2 1.5-.7 1.9z"/></svg>