<svg xmlns="http://www.w3.org/2000/svg" width="32" height="32"><path fill="#2E63A8" d="M16 13.3c-.7 0-1.4.3-1.9.8s-.8 1.1-.8 1.9a2.732 2.732 0 0 0 2.7 2.7c.7 0 1.4-.3 1.9-.8s.8-1.1.8-1.9a2.732 2.732 0 0 0-2.7-2.7zM16 0C7.2 0 0 7.2 0 16s7.2 16 16 16 16-7.2 16-16S24.8 0 16 0zm8 17.2c0 .1 0 .2-.1.2-.1.1-.1.1-.2.1l-1.9.3c-.1.4-.3.7-.4.9.2.3.6.8 1.1 1.4.1.1.1.2.1.3 0 .1 0 .2-.1.2-.2.3-.5.6-1 1.1-.5.5-.8.7-1 .7-.1 0-.2 0-.3-.1l-1.4-1.1c-.3.2-.6.3-.9.4-.1.9-.2 1.6-.3 1.9 0 .2-.2.3-.4.3h-2.3c-.1 0-.2 0-.3-.1-.1-.1-.1-.1-.1-.2l-.3-1.9c-.3-.1-.7-.2-.9-.4l-1.5 1.1c-.1.1-.2.1-.3.1-.1 0-.2 0-.3-.1-.9-.8-1.4-1.4-1.7-1.7 0-.1-.1-.1-.1-.2s0-.2.1-.2c.1-.1.3-.4.5-.7.2-.3.4-.6.6-.7-.2-.3-.3-.7-.4-1l-1.9-.3c-.1 0-.2-.1-.2-.1-.1-.1-.1-.2-.1-.3v-2.3c0-.1 0-.2.1-.2.1-.1.1-.1.2-.1l1.9-.3c.1-.3.2-.6.4-1-.3-.4-.6-.9-1.1-1.4-.1-.1-.1-.2-.1-.2 0-.1 0-.1.1-.2.2-.2.5-.6 1-1.1.5-.5.8-.7 1-.7.1 0 .2 0 .3.1l1.4 1.1c.3-.2.6-.3.9-.4.1-.9.2-1.6.3-1.9 0-.2.2-.3.4-.3h2.3c.1 0 .2 0 .3.1.1.1.1.1.1.2l.3 1.9c.3.1.7.2.9.4l1.5-1.1c.1-.1.1-.1.3-.1.1 0 .2 0 .3.1.9.8 1.5 1.4 1.7 1.8 0 .1.1.1.1.2s0 .2-.1.2c-.1.1-.3.4-.5.7-.3.3-.4.6-.6.7.2.3.3.7.4 1l1.9.3c.1 0 .2.1.2.1.1.1.1.2.1.2v2.3z"/></svg>