<svg xmlns="http://www.w3.org/2000/svg" width="32" height="32"><path fill="#CB0A1D" d="M16 0C7.2 0 0 7.2 0 16s7.2 16 16 16 16-7.2 16-16S24.8 0 16 0zM8 9.4c0-.1 0-.2.1-.3.1-.1.2-.1.3-.1h4.8c.1 0 .2 0 .3.1.1 0 .1.1.1.3v2.5c0 .1 0 .2-.1.3-.1 0-.2.1-.3.1H8.4c-.1 0-.2 0-.3-.1 0 0-.1-.2-.1-.3V9.4zm9.5 12.4c0 .1 0 .2-.1.3-.1 0-.2.1-.3.1H8.4c-.1 0-.2 0-.3-.1 0 0-.1-.1-.1-.3v-2.5c0-.1 0-.2.1-.3.1 0 .2-.1.3-.1H17c.1 0 .2 0 .3.1.1 0 .1.1.1.3v2.5zm5.7-5.1c0 .1 0 .2-.1.2s-.2.1-.3.1H8.4c-.1 0-.2 0-.3-.1-.1 0-.1-.1-.1-.3v-2.5c0-.1 0-.2.1-.3.1 0 .2-.1.3-.1h14.4c.1 0 .2 0 .3.1.1 0 .1.1.1.3v2.6z"/></svg>