<svg xmlns="http://www.w3.org/2000/svg" width="32" height="32"><path fill="#2E63A8" d="M16 0C7.2 0 0 7.2 0 16s7.2 16 16 16 16-7.2 16-16S24.8 0 16 0zm-1.3 7.8c0-.4.1-.7.4-.9.3-.3.6-.4.9-.4.4 0 .7.1.9.4.3.3.4.6.4.9v6.7c0 .4-.1.7-.4.9-.3.3-.6.4-.9.4-.4 0-.7-.1-.9-.4-.3-.3-.4-.6-.4-.9V7.8zm9.5 8.1c0 1.1-.2 2.1-.6 3.1-.4 1-1 1.9-1.7 2.6-.7.7-1.6 1.3-2.6 1.7-1 .4-2 .6-3.1.6-1.2.1-2.2-.1-3.2-.5s-1.9-1-2.6-1.7c-.8-.8-1.3-1.7-1.8-2.7-.4-1-.6-2-.6-3.1 0-1.3.3-2.5.8-3.6.6-1.1 1.4-2.1 2.4-2.8.3-.2.6-.3 1-.3s.7.2.9.5c.2.3.3.6.3 1-.1.4-.2.7-.5.9-.7.5-1.2 1.2-1.6 1.9-.4.8-.6 1.6-.6 2.4 0 .7.1 1.4.4 2.1.3.7.7 1.2 1.2 1.7s1.1.9 1.7 1.2c.7.3 1.4.4 2.1.4.7 0 1.4-.1 2.1-.4.7-.3 1.2-.7 1.7-1.2s.9-1.1 1.2-1.7c.3-.7.4-1.4.4-2.1 0-.9-.2-1.7-.6-2.4-.4-.8-.9-1.4-1.6-1.9-.3-.2-.5-.5-.5-.9-.1-.4 0-.7.3-1 .2-.3.5-.5.9-.5s.7 0 1 .3c1 .8 1.8 1.7 2.4 2.8.5 1.1.8 2.3.8 3.6z"/></svg>