<svg xmlns="http://www.w3.org/2000/svg" width="287.9" height="47.9"><g opacity=".5" fill="#999"><path d="M26.8 24.2c0 4.6-1.1 8.4-3.3 11.2-2.2 2.9-5.3 4.3-9.3 4.3-1.5 0-2.9-.4-4.1-1.1-1.3-.8-2.2-1.8-3-3V48H4.9c-1.3 0-2.5-.4-3.4-1.3-1-.9-1.5-2.1-1.5-3.5v-17c0-4.9 1.2-8.7 3.5-11.6 2.3-2.8 5.8-4.2 10.6-4.2 3.6 0 6.6 1.4 9.1 4.2 2.4 2.7 3.6 6 3.6 9.6zM19.6 26c0-3.3-.5-5.7-1.6-7.2s-2.8-2.3-5-2.3c-1.9 0-3.3.7-4.4 2.2-1.1 1.6-1.6 3.6-1.6 6 0 2.8.6 4.9 1.9 6.5 1.2 1.5 2.9 2.3 5.1 2.3 1.7 0 3.1-.7 4.1-2.1 1-1.4 1.5-3.2 1.5-5.4zM48.5 17.8h-.3c-1.4-.6-2.7-.8-4.1-.8-3.2 0-4.8 2-4.8 6v16.1h-1.9c-1.6 0-2.8-.4-3.7-1.2-.9-.8-1.4-1.9-1.4-3.3V21.7c0-3.1.9-5.7 2.6-7.8 1.7-2.1 4.3-3.2 7.8-3.2 2 0 3.4.5 4.4 1.4 1 .9 1.4 2 1.4 3.2v2.5zM51.1 25.6c0-4.4 1.2-8 3.7-10.9 2.4-2.9 5.9-4.3 10.2-4.3 4.1 0 7.3 1.4 9.7 4.2 2.4 2.8 3.6 6.1 3.6 10.1 0 4.4-1.2 8-3.7 10.9-2.4 2.8-5.9 4.3-10.2 4.3-4.1 0-7.3-1.4-9.7-4.1-2.4-3-3.6-6.3-3.6-10.2zm19.9 0c0-6-2.2-9-6.7-9-1.9 0-3.4.7-4.5 2.2-1 1.5-1.6 3.4-1.6 5.8 0 5.9 2.2 8.9 6.7 8.9 2 0 3.5-.7 4.5-2.2 1.1-1.4 1.6-3.4 1.6-5.7zM124.6 39.1h-1.7c-1.9 0-3.2-.4-4.1-1.3-.8-.9-1.2-2.1-1.2-3.8V23.2c0-2.2-.5-3.9-1.4-5-.9-1.1-2.2-1.6-3.8-1.6-1.5 0-2.6.5-3.5 1.5-.9 1-1.3 2.4-1.3 4.3v16.7h-1.9c-1.6 0-2.8-.4-3.7-1.3-.9-.9-1.4-2.1-1.4-3.8V23.2c0-2.2-.5-3.9-1.4-5-.9-1.1-2.2-1.6-3.8-1.6-1.4 0-2.5.5-3.4 1.6-.9 1.1-1.3 2.5-1.3 4.4v16.6h-1.9c-1.5 0-2.7-.5-3.6-1.4-1-.9-1.4-2.2-1.4-3.7v-11c0-4 1.1-7.1 3.2-9.3 2.1-2.3 5.2-3.4 9.3-3.4 3.5 0 6.4 1.5 8.5 4.4.8-1.3 2-2.4 3.4-3.2 1.4-.8 3-1.2 4.7-1.2 3.4 0 6.2 1 8.4 3.1 2.2 2 3.3 5 3.3 8.8v16.8zM153.4 29.5c0 3-1 5.4-3 7.2-2 1.9-4.5 2.8-7.7 2.8h-1.4c-3.3 0-6-.8-8.1-2.5-2.1-1.7-3.2-3.8-3.2-6.4 0-2.7 1.1-4.9 3.3-6.4s5.8-2.4 10.7-2.4h2.4v-.4c0-1.9-.5-3.3-1.4-4-.9-.7-2.5-1.1-4.6-1.1-2.3 0-4.1.3-5.7 1-1.5.7-2.6 1.4-3.3 2.2h-.3v-2.2c0-1.8.9-3.4 2.6-4.8 1.7-1.4 4.3-2.1 7.7-2.1 1.7 0 3.2.2 4.5.6 1.4.4 2.6 1.1 3.7 2 1.1.9 2 2.2 2.7 3.9.6 1.7 1 3.7 1 6v6.6zm-6.9.1v-2.7H144c-2.5 0-4.3.3-5.3.9-1 .6-1.5 1.5-1.5 2.7 0 1.1.4 2 1.3 2.6.8.6 2 .9 3.6.9 3-.1 4.4-1.6 4.4-4.4zM159.2 12.1c0-1.3.1-2.3.4-3.1.3-.7.8-1.6 1.6-2.5 1.1-1.3 2.2-1.9 3.3-1.9h1.6V11h9.7v2.9c0 .8-.4 1.6-1.1 2.3-.7.7-1.8 1-3.1 1H166v11c0 3.4 1.5 5.1 4.4 5.1 2.3 0 4-.3 5.1-1h.3v2.5c0 1.5-.5 2.6-1.6 3.4-1.1.8-2.6 1.3-4.6 1.3-3.5 0-6.1-.9-7.9-2.7-1.8-1.8-2.7-4.4-2.7-7.7v-17zM203.7 21.2c0 2.5-1 4.3-3 5.3s-5.4 1.5-10.1 1.5H186c.2 1.7 1.1 3.1 2.6 4.2s3.2 1.6 5.3 1.6c3.8 0 6.7-.9 8.6-2.7h.3v2.2c0 4.2-3.4 6.4-10.2 6.4-3.6 0-6.9-1.3-9.6-4-2.8-2.6-4.2-6-4.2-10.2 0-4.6 1.3-8.3 3.8-11.1 2.6-2.8 5.9-4.2 9.9-4.2 3.1 0 5.7 1 7.9 3 2.2 2.2 3.3 4.8 3.3 8zm-6.6-.8c0-1.4-.5-2.4-1.4-3.2-.9-.7-2.2-1.1-3.9-1.1-1.7 0-3 .6-4.1 1.7-1.1 1.2-1.7 2.6-1.7 4.2l-.1.9h3.1c3.2 0 5.4-.2 6.5-.6 1.1-.2 1.6-.9 1.6-1.9zM225.2 17.8h-.2c-1.4-.6-2.7-.8-4.1-.8-3.2 0-4.8 2-4.8 6v16.1h-1.9c-1.6 0-2.8-.4-3.8-1.2-.9-.8-1.4-1.9-1.4-3.3V21.7c0-3.1.9-5.7 2.6-7.8 1.7-2.1 4.3-3.2 7.8-3.2 2 0 3.4.5 4.4 1.4 1 .9 1.4 2 1.4 3.2v2.5zM236.4 2c.8.8 1.2 1.8 1.2 2.9 0 1.1-.4 2.1-1.2 2.9-.8.8-1.8 1.2-2.9 1.2-1.1 0-2.1-.4-2.9-1.2-.8-.8-1.2-1.8-1.2-2.9 0-1.1.4-2.1 1.2-2.9.8-.8 1.8-1.2 2.9-1.2 1.1 0 2 .4 2.9 1.2zm6.2 33.1c0 1.5-.3 2.6-1 3.2-.6.7-1.7 1-3.2 1-2.7 0-4.8-.7-6.2-2.2-1.4-1.5-2.2-3.7-2.2-6.5v-19h2c3.3 0 5 1.7 5 5.2v13.1c0 1.4.3 2.4 1 2.9.6.5 1.7.8 3.3.8h1.3v1.5zM268.5 29.5c0 3-1 5.4-3 7.2-2 1.9-4.5 2.8-7.7 2.8h-1.4c-3.3 0-6-.8-8.1-2.5-2.1-1.7-3.2-3.8-3.2-6.4 0-2.7 1.1-4.9 3.3-6.4 2.2-1.6 5.8-2.4 10.6-2.4h2.4v-.4c0-1.9-.5-3.3-1.4-4s-2.5-1.1-4.6-1.1c-2.3 0-4.1.3-5.7 1-1.5.7-2.6 1.4-3.3 2.2h-.3v-2.2c0-1.8.8-3.4 2.6-4.8 1.7-1.4 4.3-2.1 7.7-2.1 1.7 0 3.2.2 4.5.6 1.4.4 2.6 1.1 3.7 2 1.1.9 2 2.2 2.7 3.9.6 1.7 1 3.7 1 6v6.6zm-6.8.1v-2.7h-2.5c-2.5 0-4.3.3-5.3.9-1 .6-1.5 1.5-1.5 2.7 0 1.1.4 2 1.3 2.6.8.6 2 .9 3.6.9 2.9-.1 4.4-1.6 4.4-4.4zM287.9 35.1c0 2.8-1.6 4.2-4.7 4.2-2.9 0-5.1-.7-6.6-2.2-1.5-1.5-2.3-3.7-2.3-6.5v-29h2c1.7 0 2.9.4 3.8 1.3.8.9 1.3 2 1.3 3.4v23.6c0 1.4.4 2.4 1.1 2.9.7.5 1.9.8 3.6.8h1.9v1.5z"/></g><linearGradient id="a" gradientUnits="userSpaceOnUse" x1="13.411" y1="47.133" x2="13.411" y2="9.531"><stop offset="0" stop-color="#fff"/><stop offset="1" stop-color="#d0d0d0"/><stop offset="1" stop-color="#999"/></linearGradient><path fill="url(#a)" d="M26.8 23.4c0 4.6-1.1 8.4-3.3 11.2-2.2 2.9-5.3 4.3-9.3 4.3-1.5 0-2.9-.4-4.1-1.1-1.3-.8-2.2-1.8-3-3v12.4H4.9c-1.3 0-2.5-.4-3.4-1.3C.5 45 0 43.8 0 42.4v-17c0-4.9 1.2-8.7 3.5-11.6C5.8 11 9.3 9.6 14.1 9.6c3.6 0 6.6 1.4 9.1 4.2 2.4 2.7 3.6 5.9 3.6 9.6zm-7.2 1.8c0-3.3-.5-5.7-1.6-7.2s-2.8-2.3-5-2.3c-1.9 0-3.3.7-4.4 2.2-1.1 1.6-1.6 3.5-1.6 6 0 2.8.6 4.9 1.9 6.5 1.2 1.5 2.9 2.3 5.1 2.3 1.7 0 3.1-.7 4.1-2.1 1-1.4 1.5-3.2 1.5-5.4z"/><linearGradient id="b" gradientUnits="userSpaceOnUse" x1="40.387" y1="38.278" x2="40.387" y2="9.896"><stop offset="0" stop-color="#fff"/><stop offset="1" stop-color="#d0d0d0"/><stop offset="1" stop-color="#999"/></linearGradient><path fill="url(#b)" d="M48.5 17h-.3c-1.4-.6-2.7-.8-4.1-.8-3.2 0-4.8 2-4.8 6v16.1h-1.9c-1.6 0-2.8-.4-3.7-1.2-.9-.8-1.4-1.9-1.4-3.3V20.9c0-3.1.9-5.7 2.6-7.8 1.7-2.1 4.3-3.2 7.8-3.2 2 0 3.4.5 4.4 1.4 1 .9 1.4 2 1.4 3.2V17z"/><linearGradient id="c" gradientUnits="userSpaceOnUse" x1="64.682" y1="38.903" x2="64.682" y2="9.531"><stop offset="0" stop-color="#fff"/><stop offset="1" stop-color="#d0d0d0"/><stop offset="1" stop-color="#999"/></linearGradient><path fill="url(#c)" d="M51.1 24.7c0-4.4 1.2-8 3.7-10.9C57.2 11 60.6 9.5 65 9.5c4.1 0 7.3 1.4 9.7 4.2 2.4 2.8 3.6 6.1 3.6 10.1 0 4.4-1.2 8-3.7 10.9-2.4 2.8-5.9 4.3-10.2 4.3-4.1 0-7.3-1.4-9.7-4.1-2.4-2.9-3.6-6.2-3.6-10.2zm19.9 0c0-6-2.2-9-6.7-9-1.9 0-3.4.7-4.5 2.2-1 1.5-1.6 3.4-1.6 5.8 0 5.9 2.2 8.9 6.7 8.9 2 0 3.5-.7 4.5-2.2 1.1-1.3 1.6-3.3 1.6-5.7z"/><linearGradient id="d" gradientUnits="userSpaceOnUse" x1="104.183" y1="38.278" x2="104.183" y2="9.531"><stop offset="0" stop-color="#fff"/><stop offset="1" stop-color="#d0d0d0"/><stop offset="1" stop-color="#999"/></linearGradient><path fill="url(#d)" d="M124.6 38.3h-1.7c-1.9 0-3.2-.4-4.1-1.3-.8-.9-1.2-2.1-1.2-3.8V22.3c0-2.2-.5-3.9-1.4-5-.9-1.1-2.2-1.6-3.8-1.6-1.5 0-2.6.5-3.5 1.5-.9 1-1.3 2.4-1.3 4.3v16.7h-1.9c-1.6 0-2.8-.4-3.7-1.3-.9-.9-1.4-2.1-1.4-3.8V22.3c0-2.2-.5-3.9-1.4-5-.9-1.1-2.2-1.6-3.8-1.6-1.4 0-2.5.5-3.4 1.6-.9 1.1-1.3 2.5-1.3 4.4v16.6h-1.9c-1.5 0-2.7-.5-3.6-1.4-1-.9-1.4-2.2-1.4-3.7V22.3c0-4 1.1-7.1 3.2-9.3 2.1-2.3 5.2-3.4 9.3-3.4 3.5 0 6.4 1.5 8.5 4.4.8-1.3 2-2.4 3.4-3.2 1.4-.8 3-1.2 4.7-1.2 3.4 0 6.2 1 8.4 3.1 2.2 2 3.3 5 3.3 8.8v16.8z"/><linearGradient id="e" gradientUnits="userSpaceOnUse" x1="141.732" y1="38.746" x2="141.732" y2="9.635"><stop offset="0" stop-color="#fff"/><stop offset="1" stop-color="#d0d0d0"/><stop offset="1" stop-color="#999"/></linearGradient><path fill="url(#e)" d="M153.4 28.7c0 3-1 5.4-3 7.2-2 1.9-4.5 2.8-7.7 2.8h-1.4c-3.3 0-6-.8-8.1-2.5-2.1-1.7-3.2-3.8-3.2-6.4 0-2.7 1.1-4.9 3.3-6.4S139.2 21 144 21h2.4v-.4c0-1.9-.5-3.3-1.4-4-.9-.7-2.5-1.1-4.6-1.1-2.3 0-4.1.3-5.7 1-1.5.7-2.6 1.4-3.3 2.2h-.3v-2.2c0-1.8.9-3.4 2.6-4.8 1.7-1.4 4.3-2.1 7.7-2.1 1.7 0 3.2.2 4.5.6 1.4.4 2.6 1.1 3.7 2 1.1.9 2 2.2 2.7 3.9.6 1.7 1 3.7 1 6v6.6zm-6.9 0V26H144c-2.5 0-4.3.3-5.3.9-1 .6-1.5 1.5-1.5 2.7 0 1.1.4 2 1.3 2.6.8.6 2 .9 3.6.9 3 0 4.4-1.5 4.4-4.4z"/><linearGradient id="f" gradientUnits="userSpaceOnUse" x1="167.486" y1="38.591" x2="167.486" y2="3.803"><stop offset="0" stop-color="#fff"/><stop offset="1" stop-color="#d0d0d0"/><stop offset="1" stop-color="#999"/></linearGradient><path fill="url(#f)" d="M159.2 11.3c0-1.3.1-2.3.4-3.1.3-.7.8-1.6 1.6-2.5 1.1-1.3 2.2-1.9 3.3-1.9h1.6v6.4h9.7V13c0 .8-.4 1.6-1.1 2.3-.7.7-1.8 1-3.1 1H166v11c0 3.4 1.5 5.1 4.4 5.1 2.3 0 4-.3 5.1-1h.3v2.5c0 1.5-.5 2.6-1.6 3.4-1.1.8-2.6 1.3-4.6 1.3-3.5 0-6.1-.9-7.9-2.7-1.8-1.8-2.7-4.4-2.7-7.7V11.3z"/><linearGradient id="g" gradientUnits="userSpaceOnUse" x1="191.18" y1="38.903" x2="191.18" y2="9.531"><stop offset="0" stop-color="#fff"/><stop offset="1" stop-color="#d0d0d0"/><stop offset="1" stop-color="#999"/></linearGradient><path fill="url(#g)" d="M203.7 20.4c0 2.5-1 4.3-3 5.3s-5.4 1.5-10.1 1.5H186c.2 1.7 1.1 3.1 2.6 4.2s3.2 1.6 5.3 1.6c3.8 0 6.7-.9 8.6-2.7h.3v2.2c0 4.2-3.4 6.4-10.2 6.4-3.6 0-6.9-1.3-9.6-4-2.8-2.6-4.2-6-4.2-10.2 0-4.6 1.3-8.3 3.8-11.1 2.6-2.8 5.9-4.2 9.9-4.2 3.1 0 5.7 1 7.9 3 2.2 2.2 3.3 4.8 3.3 8zm-6.6-.8c0-1.4-.5-2.4-1.4-3.2-.9-.7-2.2-1.1-3.9-1.1-1.7 0-3 .6-4.1 1.7-1.1 1.2-1.7 2.6-1.7 4.2l-.1.9h3.1c3.2 0 5.4-.2 6.5-.6 1.1-.2 1.6-.9 1.6-1.9z"/><linearGradient id="h" gradientUnits="userSpaceOnUse" x1="217.143" y1="38.278" x2="217.143" y2="9.896"><stop offset="0" stop-color="#fff"/><stop offset="1" stop-color="#d0d0d0"/><stop offset="1" stop-color="#999"/></linearGradient><path fill="url(#h)" d="M225.2 17h-.2c-1.4-.6-2.7-.8-4.1-.8-3.2 0-4.8 2-4.8 6v16.1h-1.9c-1.6 0-2.8-.4-3.8-1.2-.9-.8-1.4-1.9-1.4-3.3V20.9c0-3.1.9-5.7 2.6-7.8 1.7-2.1 4.3-3.2 7.8-3.2 2 0 3.4.5 4.4 1.4 1 .9 1.4 2 1.4 3.2V17z"/><linearGradient id="i" gradientUnits="userSpaceOnUse" x1="235.994" y1="38.538" x2="235.994"><stop offset="0" stop-color="#fff"/><stop offset="1" stop-color="#d0d0d0"/><stop offset="1" stop-color="#999"/></linearGradient><path fill="url(#i)" d="M236.4 1.2c.8.8 1.2 1.8 1.2 2.9 0 1.1-.4 2.1-1.2 2.9-.8.8-1.8 1.2-2.9 1.2-1.1 0-2.1-.4-2.9-1.2-.8-.8-1.2-1.8-1.2-2.9 0-1.1.4-2.1 1.2-2.9.8-.8 1.8-1.2 2.9-1.2 1.1 0 2 .4 2.9 1.2zm6.2 33.1c0 1.5-.3 2.6-1 3.2-.6.7-1.7 1-3.2 1-2.7 0-4.8-.7-6.2-2.2-1.4-1.5-2.2-3.7-2.2-6.5v-19h2c3.3 0 5 1.7 5 5.2v13.1c0 1.4.3 2.4 1 2.9.6.5 1.7.8 3.3.8h1.3v1.5z"/><linearGradient id="j" gradientUnits="userSpaceOnUse" x1="256.877" y1="38.746" x2="256.877" y2="9.635"><stop offset="0" stop-color="#fff"/><stop offset="1" stop-color="#d0d0d0"/><stop offset="1" stop-color="#999"/></linearGradient><path fill="url(#j)" d="M268.5 28.7c0 3-1 5.4-3 7.2-2 1.9-4.5 2.8-7.7 2.8h-1.4c-3.3 0-6-.8-8.1-2.5-2.1-1.7-3.2-3.8-3.2-6.4 0-2.7 1.1-4.9 3.3-6.4 2.2-1.6 5.8-2.4 10.6-2.4h2.4v-.4c0-1.9-.5-3.3-1.4-4s-2.5-1.1-4.6-1.1c-2.3 0-4.1.3-5.7 1-1.5.7-2.6 1.4-3.3 2.2h-.3v-2.2c0-1.8.8-3.4 2.6-4.8 1.7-1.4 4.3-2.1 7.7-2.1 1.7 0 3.2.2 4.5.6 1.4.4 2.6 1.1 3.7 2 1.1.9 2 2.2 2.7 3.9.6 1.7 1 3.7 1 6v6.6zm-6.8 0V26h-2.5c-2.5 0-4.3.3-5.3.9-1 .6-1.5 1.5-1.5 2.7 0 1.1.4 2 1.3 2.6.8.6 2 .9 3.6.9 2.9 0 4.4-1.5 4.4-4.4z"/><linearGradient id="k" gradientUnits="userSpaceOnUse" x1="281.094" y1="38.538" x2="281.094" y2=".782"><stop offset="0" stop-color="#fff"/><stop offset="1" stop-color="#d0d0d0"/><stop offset="1" stop-color="#999"/></linearGradient><path fill="url(#k)" d="M287.9 34.3c0 2.8-1.6 4.2-4.7 4.2-2.9 0-5.1-.7-6.6-2.2-1.5-1.5-2.3-3.7-2.3-6.5V.8h2c1.7 0 2.9.4 3.8 1.3.8.9 1.3 2 1.3 3.4v23.6c0 1.4.4 2.4 1.1 2.9.7.5 1.9.8 3.6.8h1.9v1.5z"/></svg>