<svg xmlns="http://www.w3.org/2000/svg" width="32" height="32"><path fill="#2E63A8" d="M16 0C7.2 0 0 7.2 0 16s7.2 16 16 16 16-7.2 16-16S24.8 0 16 0zm2.2 24c0 .2-.1.4-.2.6-.2.2-.3.2-.6.2h-3.2c-.2 0-.4-.1-.6-.2-.2-.2-.2-.4-.2-.6v-2.8c0-.2.1-.4.2-.6.2-.2.3-.2.6-.2h3.2c.2 0 .4.1.6.2.2.2.2.3.2.6V24zm.1-6.5c0 .2-.1.4-.3.6-.2.2-.4.2-.6.2h-3.2c-.2 0-.4-.1-.6-.2-.2-.2-.3-.3-.3-.6L13 7.8c0-.2.1-.4.2-.6.2-.1.4-.2.6-.2h4c.2 0 .4.1.6.2.2.2.2.4.2.6l-.3 9.7z"/><path fill="#FECC0B" d="M29.3 2.4c0 .1.2-.1.2-.1.2-.1.5-.1.7-.2.3-.1.6-.2 1-.3 0 .1.1 0 .1 0 .1.1.3.1.4.2 0 0 0 .1.1.1v.1c0 .3.2.6.1.9 0 .1-.1.2-.1.3-.3.2-.6.2-.9.3L30 4c.1.2.2.3.2.5.1.2.2.3.3.5.1.2.2.3.2.5.1.2.2.3.3.5v.4c0 .1 0 .1-.1.2-.2.2-.5.4-.8.5h-.3c0-.1-.1 0-.1 0v-.2h-.1l-.1-.1c-.2-.2-.4-.7-.6-.9-.2-.4-.4-.7-.6-1.1l-.3.6-.3.6c-.2.4-.4.8-.7 1.1l-.1.1H26.6c-.3-.2-.6-.3-.8-.5 0-.1 0-.1-.1-.2v-.2-.1-.1c.1-.2.2-.3.3-.5 0-.1 0-.1.1-.1.2-.4.5-.9.7-1.3-.3-.1-.7-.2-1-.3-.3-.1-.7-.2-.9-.3 0-.1-.1-.2-.1-.3 0-.3.1-.6.1-.9.1 0 0-.1.1-.1v-.1c.4-.2.5-.2.6-.3h.1c.6.1 1.4.4 2 .6.1-.7 0-1.5.1-2.1.1-.2.2-.4.4-.4.3 0 .6 0 .8.1l.3.3v2z"/></svg>