<svg xmlns="http://www.w3.org/2000/svg" xmlns:xlink="http://www.w3.org/1999/xlink" width="32" height="32">
<g id="b">
<path fill="#2E63A8" d="M16 0C7.2 0 0 7.2 0 16s7.2 16 16 16 16-7.2 16-16S24.8 0 16 0zM8 9.4c0-.1 0-.2.1-.3.1-.1.2-.1.3-.1h4.8c.1 0 .2 0 .3.1.1 0 .1.1.1.3v2.5c0 .1 0 .2-.1.3-.1 0-.2.1-.3.1H8.4c-.1 0-.2 0-.3-.1 0 0-.1-.2-.1-.3V9.4zm9.5 12.4c0 .1 0 .2-.1.3-.1 0-.2.1-.3.1H8.4c-.1 0-.2 0-.3-.1 0 0-.1-.1-.1-.3v-2.5c0-.1 0-.2.1-.3.1 0 .2-.1.3-.1H17c.1 0 .2 0 .3.1.1 0 .1.1.1.3v2.5zm5.7-5.1c0 .1 0 .2-.1.2s-.2.1-.3.1H8.4c-.1 0-.2 0-.3-.1-.1 0-.1-.1-.1-.3v-2.5c0-.1 0-.2.1-.3.1 0 .2-.1.3-.1h14.4c.1 0 .2 0 .3.1.1 0 .1.1.1.3v2.6z"/>
<animateTransform xlink:href="#b" attributeName="transform" dur="4s" type="rotate" from="0 16 16" to="360 16 16" repeatCount="indefinite"/>
</g>
<path fill="#FECC0B" d="M29.3 2.4c0 .1.2-.1.2-.1.2-.1.5-.1.7-.2.3-.1.6-.2 1-.3 0 .1.1 0 .1 0 .1.1.3.1.4.2 0 0 0 .1.1.1v.1c0 .3.2.6.1.9 0 .1-.1.2-.1.3-.3.2-.6.2-.9.3L30 4c.1.2.2.3.2.5.1.2.2.3.3.5.1.2.2.3.2.5.1.2.2.3.3.5v.4c0 .1 0 .1-.1.2-.2.2-.5.4-.8.5h-.3c0-.1-.1 0-.1 0v-.2h-.1l-.1-.1c-.2-.2-.4-.7-.6-.9-.2-.4-.4-.7-.6-1.1l-.3.6-.3.6c-.2.4-.4.8-.7 1.1l-.1.1H26.6c-.3-.2-.6-.3-.8-.5 0-.1 0-.1-.1-.2v-.2-.1-.1c.1-.2.2-.3.3-.5 0-.1 0-.1.1-.1.2-.4.5-.9.7-1.3-.3-.1-.7-.2-1-.3-.3-.1-.7-.2-.9-.3 0-.1-.1-.2-.1-.3 0-.3.1-.6.1-.9.1 0 0-.1.1-.1v-.1c.4-.2.5-.2.6-.3h.1c.6.1 1.4.4 2 .6.1-.7 0-1.5.1-2.1.1-.2.2-.4.4-.4.3 0 .6 0 .8.1l.3.3v2z"/>
</svg>